<svg width="20" height="20" viewBox="0 0 20 20" fill="none" xmlns="http://www.w3.org/2000/svg">
<g clip-path="url(#clip0_1_72)">
<path d="M17.2812 8.12648C17.0007 7.83333 16.7105 7.53124 16.6011 7.26563C16.5 7.02232 16.494 6.61904 16.4881 6.22842C16.4769 5.50223 16.465 4.67931 15.8928 4.10714C15.3206 3.53497 14.4978 3.52306 13.7716 3.5119C13.3809 3.50595 12.9777 3.5 12.7343 3.39881C12.4695 3.28944 12.1666 2.99925 11.8735 2.71875C11.3601 2.22545 10.7767 1.66666 9.99996 1.66666C9.22317 1.66666 8.64059 2.22545 8.12644 2.71875C7.83329 2.99925 7.53121 3.28944 7.26559 3.39881C7.02377 3.5 6.61901 3.50595 6.22838 3.5119C5.50219 3.52306 4.67927 3.53497 4.1071 4.10714C3.53493 4.67931 3.52674 5.50223 3.51186 6.22842C3.50591 6.61904 3.49996 7.02232 3.39877 7.26563C3.2894 7.5305 2.99922 7.83333 2.71871 8.12648C2.22541 8.63988 1.66663 9.22321 1.66663 10C1.66663 10.7768 2.22541 11.3593 2.71871 11.8735C2.99922 12.1667 3.2894 12.4688 3.39877 12.7344C3.49996 12.9777 3.50591 13.3809 3.51186 13.7716C3.52303 14.4978 3.53493 15.3207 4.1071 15.8929C4.67927 16.465 5.50219 16.4769 6.22838 16.4881C6.61901 16.494 7.02228 16.5 7.26559 16.6011C7.53046 16.7106 7.83329 17.0008 8.12644 17.2812C8.63984 17.7746 9.22317 18.3333 9.99996 18.3333C10.7767 18.3333 11.3593 17.7746 11.8735 17.2812C12.1666 17.0008 12.4687 16.7106 12.7343 16.6011C12.9777 16.5 13.3809 16.494 13.7716 16.4881C14.4978 16.4769 15.3206 16.465 15.8928 15.8929C16.465 15.3207 16.4769 14.4978 16.4881 13.7716C16.494 13.3809 16.5 12.9777 16.6011 12.7344C16.7105 12.4695 17.0007 12.1667 17.2812 11.8735C17.7745 11.3601 18.3333 10.7768 18.3333 10C18.3333 9.22321 17.7745 8.64063 17.2812 8.12648ZM13.3973 8.63542L9.23062 12.8021C9.17533 12.8574 9.10968 12.9013 9.03743 12.9313C8.96516 12.9612 8.8877 12.9767 8.80948 12.9767C8.73126 12.9767 8.65381 12.9612 8.58154 12.9313C8.50928 12.9013 8.44363 12.8574 8.38835 12.8021L6.60263 11.0164C6.49095 10.9047 6.4282 10.7532 6.4282 10.5952C6.4282 10.4372 6.49095 10.2858 6.60263 10.1741C6.71433 10.0624 6.86582 9.99966 7.02377 9.99966C7.18172 9.99966 7.33321 10.0624 7.4449 10.1741L8.80948 11.5394L12.555 7.79315C12.6103 7.73784 12.676 7.69398 12.7482 7.66404C12.8205 7.63412 12.898 7.61871 12.9761 7.61871C13.0543 7.61871 13.1318 7.63412 13.2041 7.66404C13.2763 7.69398 13.342 7.73784 13.3973 7.79315C13.4526 7.84845 13.4964 7.91411 13.5263 7.98637C13.5563 8.05863 13.5717 8.13607 13.5717 8.21428C13.5717 8.29249 13.5563 8.36994 13.5263 8.4422C13.4964 8.51445 13.4526 8.58011 13.3973 8.63542Z" fill="#2563EB"/>
</g>
<defs>
<clipPath id="clip0_1_72">
<rect width="20" height="20" fill="white"/>
</clipPath>
</defs>
</svg>
