<svg width="16" height="16" viewBox="0 0 16 16" fill="none" xmlns="http://www.w3.org/2000/svg">
<g clip-path="url(#clip0_582_1502)">
<path d="M13 6.5C13 9.26125 10.7613 12.5 8 12.5C5.23875 12.5 3 9.26125 3 6.5C3 5.17392 3.52678 3.90215 4.46447 2.96447C5.40215 2.02678 6.67392 1.5 8 1.5C9.32608 1.5 10.5979 2.02678 11.5355 2.96447C12.4732 3.90215 13 5.17392 13 6.5Z" stroke="#111827" stroke-width="1.5" stroke-linecap="round" stroke-linejoin="round"/>
<path d="M8.5 3.5C9.12213 3.61158 9.69518 3.91096 10.1421 4.35789C10.589 4.80482 10.8884 5.37787 11 6" stroke="#111827" stroke-width="1.5" stroke-linecap="round" stroke-linejoin="round"/>
<path d="M8.61938 12.4458L9.5 14.5002H6.5L7.38062 12.4458" stroke="#111827" stroke-width="1.5" stroke-linecap="round" stroke-linejoin="round"/>
</g>
<defs>
<clipPath id="clip0_582_1502">
<rect width="16" height="16" fill="white"/>
</clipPath>
</defs>
</svg>
