<svg width="24" height="24" viewBox="0 0 24 24" fill="none" xmlns="http://www.w3.org/2000/svg">
<g clip-path="url(#clip0_737_134)">
<path d="M11.9958 1C11.7117 1 11.4411 1.12078 11.2514 1.3322L11.249 1.33487L11.2445 1.33997L11.2292 1.35726C11.2163 1.37184 11.1982 1.3925 11.1756 1.41859C11.1304 1.47072 11.067 1.54488 10.9915 1.63604C10.8412 1.81735 10.6387 2.07089 10.434 2.35557C10.2319 2.63662 10.0134 2.96784 9.84125 3.30231C9.68576 3.60445 9.49609 4.04277 9.49609 4.5C9.49609 5.52512 10.1131 6.4063 10.9961 6.79207V9C10.9961 9.55228 11.4438 10 11.9961 10C12.5484 10 12.9961 9.55228 12.9961 9V6.79178C13.8787 6.40587 14.4954 5.52487 14.4954 4.5C14.4954 4.04277 14.3058 3.60445 14.1503 3.30231C13.9782 2.96784 13.7596 2.63662 13.5575 2.35557C13.3528 2.07089 13.1503 1.81735 13.0001 1.63604C12.9245 1.54488 12.8611 1.47072 12.816 1.41859C12.7934 1.3925 12.7752 1.37184 12.7624 1.35726L12.747 1.33997L12.7425 1.33487L12.7401 1.3322C12.5504 1.12078 12.2798 1 11.9958 1Z" fill="#111315"/>
<path fill-rule="evenodd" clip-rule="evenodd" d="M20.384 9.52525C20.8545 10.0598 21.1677 10.7729 21.2464 11.6865C21.2482 11.7079 21.2491 11.7294 21.2491 11.7509C21.2491 12.3736 21.164 12.9463 20.9306 13.4865C20.6973 14.0264 20.3372 14.485 19.8568 14.9128C19.5084 15.2363 18.9736 15.5145 18.3799 15.6534C17.7701 15.796 17.0354 15.8059 16.3115 15.5068C15.6589 15.2372 15.1621 14.7605 14.8026 14.2048C14.445 14.7619 13.9128 15.3248 13.1937 15.5248C12.6123 15.6865 11.5677 15.833 10.5699 15.433C10.0095 15.2083 9.50887 14.8298 9.12559 14.2659C9.09838 14.3051 9.07052 14.344 9.04199 14.3824C8.52257 15.0811 7.69476 15.7293 6.57422 15.7074C6.55801 15.7074 6.54178 15.7074 6.52554 15.7075C5.87837 15.7079 5.21599 15.7083 4.50176 15.2033C2.91644 14.2299 2.52175 12.5706 2.86413 11.169C3.19682 9.80707 4.27713 8.51217 5.8118 8.34037C6.43497 8.2706 7.15849 8.26059 7.77796 8.29151L16.5703 8.26953C16.5733 8.2693 16.5764 8.26906 16.5798 8.2688C16.8049 8.25174 17.7979 8.17649 18.8015 8.50986C19.3428 8.68967 19.92 8.99806 20.384 9.52525Z" fill="#111315"/>
<path d="M14.8133 16.3747C15.0907 16.5758 15.3988 16.7519 15.7393 16.8926C16.8124 17.3359 17.8767 17.311 18.722 17.1134C18.9296 17.0648 19.1356 17.0032 19.3367 16.9294L18.5176 20.5986C18.237 21.8557 17.1215 22.7493 15.8337 22.7493H8.16531C6.87871 22.7493 5.76407 21.8572 5.48214 20.6019L4.66406 16.9593C5.37993 17.2087 6.02392 17.2077 6.47425 17.2069H6.56205C7.61707 17.2235 8.48051 16.8616 9.151 16.3711C9.42399 16.5538 9.71275 16.7046 10.0124 16.8247C11.4385 17.3964 12.8543 17.1757 13.5961 16.9694C14.0634 16.8394 14.4674 16.6267 14.8133 16.3747Z" fill="#111315"/>
</g>
<defs>
<clipPath id="clip0_737_134">
<rect width="24" height="24" fill="white"/>
</clipPath>
</defs>
</svg>
