<svg width="24" height="24" viewBox="0 0 24 24" fill="none" xmlns="http://www.w3.org/2000/svg">
<g clip-path="url(#clip0_582_1277)">
<path d="M12.5 15C13.3284 15 14 14.3284 14 13.5C14 12.6716 13.3284 12 12.5 12C11.6716 12 11 12.6716 11 13.5C11 14.3284 11.6716 15 12.5 15Z" fill="#111827"/>
<path d="M12.5 8C13.3284 8 14 7.32843 14 6.5C14 5.67157 13.3284 5 12.5 5C11.6716 5 11 5.67157 11 6.5C11 7.32843 11.6716 8 12.5 8Z" fill="#111827"/>
<path d="M12.5 22C13.3284 22 14 21.3284 14 20.5C14 19.6716 13.3284 19 12.5 19C11.6716 19 11 19.6716 11 20.5C11 21.3284 11.6716 22 12.5 22Z" fill="#111827"/>
</g>
<defs>
<clipPath id="clip0_582_1277">
<rect width="24" height="24" fill="white"/>
</clipPath>
</defs>
</svg>
