<svg width="16" height="16" viewBox="0 0 16 16" fill="none" xmlns="http://www.w3.org/2000/svg">
<g clip-path="url(#clip0_582_1478)">
<path d="M13.75 9.5H11.75V13" stroke="white" stroke-width="1.5" stroke-linecap="round" stroke-linejoin="round"/>
<path d="M13.25 11.5H11.75" stroke="white" stroke-width="1.5" stroke-linecap="round" stroke-linejoin="round"/>
<path d="M2.75 12H3.75C4.08152 12 4.39946 11.8683 4.63388 11.6339C4.8683 11.3995 5 11.0815 5 10.75C5 10.4185 4.8683 10.1005 4.63388 9.86612C4.39946 9.6317 4.08152 9.5 3.75 9.5H2.75V13" stroke="white" stroke-width="1.5" stroke-linecap="round" stroke-linejoin="round"/>
<path d="M7 9.5V13H8C8.46413 13 8.90925 12.8156 9.23744 12.4874C9.56563 12.1592 9.75 11.7141 9.75 11.25C9.75 10.7859 9.56563 10.3408 9.23744 10.0126C8.90925 9.68437 8.46413 9.5 8 9.5H7Z" stroke="white" stroke-width="1.5" stroke-linecap="round" stroke-linejoin="round"/>
<path d="M9.25 2V5.75H13" stroke="white" stroke-width="1.5" stroke-linecap="round" stroke-linejoin="round"/>
<path d="M3 6.75V2.5C3 2.36739 3.05268 2.24021 3.14645 2.14645C3.24021 2.05268 3.36739 2 3.5 2H9.5L13 5.5V6.75" stroke="white" stroke-width="1.5" stroke-linecap="round" stroke-linejoin="round"/>
</g>
<defs>
<clipPath id="clip0_582_1478">
<rect width="16" height="16" fill="white"/>
</clipPath>
</defs>
</svg>
