<svg width="24" height="24" viewBox="0 0 24 24" fill="none" xmlns="http://www.w3.org/2000/svg">
<g clip-path="url(#clip0_582_34)">
<path d="M12 15.75C14.0711 15.75 15.75 14.0711 15.75 12C15.75 9.92893 14.0711 8.25 12 8.25C9.92893 8.25 8.25 9.92893 8.25 12C8.25 14.0711 9.92893 15.75 12 15.75Z" stroke="#102F73" stroke-width="1.5" stroke-linecap="round" stroke-linejoin="round"/>
<path d="M3.88406 16.6959C3.46966 15.9821 3.15218 15.2163 2.94 14.4187L4.51312 12.4499C4.49531 12.149 4.49531 11.8472 4.51312 11.5462L2.94094 9.57744C3.15275 8.7797 3.46959 8.01363 3.88312 7.29932L6.38719 7.01807C6.58715 6.79278 6.80034 6.57959 7.02562 6.37963L7.30687 3.8765C8.02016 3.46494 8.78498 3.14999 9.58125 2.93994L11.55 4.51307C11.851 4.49525 12.1528 4.49525 12.4537 4.51307L14.4225 2.94088C15.2202 3.1527 15.9863 3.46953 16.7006 3.88307L16.9819 6.38713C17.2072 6.58709 17.4203 6.80028 17.6203 7.02557L20.1234 7.30682C20.5378 8.0206 20.8553 8.78639 21.0675 9.584L19.4944 11.5528C19.5122 11.8537 19.5122 12.1555 19.4944 12.4565L21.0666 14.4253C20.8562 15.2228 20.541 15.9888 20.1291 16.7034L17.625 16.9846C17.425 17.2099 17.2118 17.4231 16.9866 17.6231L16.7053 20.1262C15.9915 20.5406 15.2257 20.8581 14.4281 21.0703L12.4594 19.4971C12.1584 19.5149 11.8566 19.5149 11.5556 19.4971L9.58687 21.0693C8.78937 20.859 8.0233 20.5437 7.30875 20.1318L7.0275 17.6278C6.80221 17.4278 6.58902 17.2146 6.38906 16.9893L3.88406 16.6959Z" stroke="#102F73" stroke-width="1.5" stroke-linecap="round" stroke-linejoin="round"/>
</g>
<defs>
<clipPath id="clip0_582_34">
<rect width="24" height="24" fill="white"/>
</clipPath>
</defs>
</svg>
