<svg width="24" height="24" viewBox="0 0 24 24" fill="none" xmlns="http://www.w3.org/2000/svg">
<g clip-path="url(#clip0_582_1813)">
<path d="M16.5 19.4286C17.0174 19.2248 17.5188 18.9825 18 18.7039V22.4999C18 22.6988 17.921 22.8896 17.7803 23.0302C17.6397 23.1709 17.4489 23.2499 17.25 23.2499C17.0511 23.2499 16.8603 23.1709 16.7197 23.0302C16.579 22.8896 16.5 22.6988 16.5 22.4999V19.4286ZM17.6025 11.1383L12.3525 8.338C12.1773 8.24853 11.9741 8.23145 11.7864 8.29044C11.5988 8.34943 11.4418 8.47976 11.3494 8.65337C11.2569 8.82697 11.2364 9.02994 11.2921 9.21855C11.3479 9.40717 11.4755 9.56633 11.6475 9.66175L16.0313 11.9999L17.625 11.1505L17.6025 11.1383ZM23.6025 8.338L12.3525 2.338C12.244 2.28022 12.1229 2.25 12 2.25C11.8771 2.25 11.756 2.28022 11.6475 2.338L0.39751 8.338C0.277514 8.40195 0.17716 8.49732 0.107185 8.6139C0.0372091 8.73049 0.000244141 8.8639 0.000244141 8.99988C0.000244141 9.13585 0.0372091 9.26926 0.107185 9.38585C0.17716 9.50243 0.277514 9.5978 0.39751 9.66175L3.00001 11.0502V15.5896C2.99923 15.958 3.13481 16.3136 3.38064 16.588C4.60876 17.9558 7.36032 20.2499 12 20.2499C13.5384 20.2626 15.0653 19.9839 16.5 19.4286V12.2502L16.0313 11.9999L12 14.1496L4.10907 9.93738L2.34376 8.99988L12 3.85019L21.6563 8.99988L19.8956 9.93738H19.89L17.625 11.1505C17.739 11.2163 17.8337 11.311 17.8996 11.4251C17.9654 11.5391 18 11.6685 18 11.8002V18.7039C18.978 18.1394 19.8618 17.4254 20.6194 16.588C20.8652 16.3136 21.0008 15.958 21 15.5896V11.0502L23.6025 9.66175C23.7225 9.5978 23.8229 9.50243 23.8928 9.38585C23.9628 9.26926 23.9998 9.13585 23.9998 8.99988C23.9998 8.8639 23.9628 8.73049 23.8928 8.6139C23.8229 8.49732 23.7225 8.40195 23.6025 8.338Z" fill="#2463EB"/>
</g>
<defs>
<clipPath id="clip0_582_1813">
<rect width="24" height="24" fill="white"/>
</clipPath>
</defs>
</svg>
