<svg width="24" height="24" viewBox="0 0 24 24" fill="none" xmlns="http://www.w3.org/2000/svg">
<g clip-path="url(#clip0_582_88)">
<path d="M5.69531 19.2647C5.64621 19.4153 5.64609 19.5777 5.69496 19.7284C5.74383 19.8791 5.83919 20.0105 5.96735 20.1037C6.09552 20.1969 6.2499 20.2471 6.40836 20.2471C6.56681 20.2471 6.7212 20.1969 6.84937 20.1037L21.4397 9.60374C21.5665 9.51031 21.6606 9.37932 21.7088 9.22937C21.757 9.07941 21.7567 8.9181 21.7081 8.76829C21.6594 8.61849 21.5648 8.48781 21.4377 8.39478C21.3107 8.30175 21.1575 8.25109 21 8.24999H3C2.8416 8.2499 2.68725 8.29995 2.55905 8.39298C2.43086 8.48601 2.3354 8.61724 2.28638 8.76786C2.23735 8.91847 2.23727 9.08074 2.28614 9.23141C2.33502 9.38207 2.43033 9.5134 2.55844 9.60656L17.1487 20.1066C17.2769 20.1997 17.4313 20.2499 17.5898 20.2499C17.7482 20.2499 17.9026 20.1997 18.0308 20.1065C18.1589 20.0133 18.2543 19.8819 18.3032 19.7312C18.352 19.5805 18.3519 19.4182 18.3028 19.2675L12.7134 2.03249C12.6677 1.8788 12.5735 1.74399 12.445 1.64813C12.3164 1.55227 12.1604 1.50049 12 1.50049C11.8396 1.50049 11.6836 1.55227 11.555 1.64813C11.4265 1.74399 11.3323 1.8788 11.2866 2.03249L5.69531 19.2647Z" stroke="#102F73" stroke-width="1.5" stroke-linecap="round" stroke-linejoin="round"/>
</g>
<defs>
<clipPath id="clip0_582_88">
<rect width="24" height="24" fill="white"/>
</clipPath>
</defs>
</svg>
