<svg width="24" height="24" viewBox="0 0 24 24" fill="none" xmlns="http://www.w3.org/2000/svg">
<g clip-path="url(#clip0_737_197)">
<path fill-rule="evenodd" clip-rule="evenodd" d="M7.6125 1.25C8.15098 1.25 8.5875 1.68754 8.5875 2.22727V3.20455H15.4125V2.22727C15.4125 1.68754 15.849 1.25 16.3875 1.25C16.926 1.25 17.3625 1.68754 17.3625 2.22727V3.20455H18.825C20.4404 3.20455 21.75 4.51717 21.75 6.13636V19.8182C21.75 21.4374 20.4404 22.75 18.825 22.75H5.175C3.55957 22.75 2.25 21.4374 2.25 19.8182V6.13636C2.25 4.51717 3.55957 3.20455 5.175 3.20455H6.6375V2.22727C6.6375 1.68754 7.07403 1.25 7.6125 1.25ZM19.7999 9.75H4.19995V19.8182C4.19995 20.3579 4.63647 20.7955 5.17495 20.7955H18.8249C19.3634 20.7955 19.7999 20.3579 19.7999 19.8182V9.75Z" fill="#111315"/>
<path fill-rule="evenodd" clip-rule="evenodd" d="M12 11.2725C12.5523 11.2725 13 11.7203 13 12.2725V14.2725H15C15.5523 14.2725 16 14.7203 16 15.2725C16 15.8248 15.5523 16.2725 15 16.2725H13V18.2725C13 18.8248 12.5523 19.2725 12 19.2725C11.4477 19.2725 11 18.8248 11 18.2725V16.2725H9C8.44772 16.2725 8 15.8248 8 15.2725C8 14.7203 8.44772 14.2725 9 14.2725H11V12.2725C11 11.7203 11.4477 11.2725 12 11.2725Z" fill="#111315"/>
</g>
<defs>
<clipPath id="clip0_737_197">
<rect width="24" height="24" fill="white"/>
</clipPath>
</defs>
</svg>
